<mxfile host="Electron" modified="2023-09-10T19:41:08.485Z" agent="Mozilla/5.0 (Windows NT 10.0; Win64; x64) AppleWebKit/537.36 (KHTML, like Gecko) draw.io/21.6.8 Chrome/114.0.5735.289 Electron/25.5.0 Safari/537.36" etag="Z5sRmbDimVwax7bmc-Uk" version="21.6.8" type="device">
  <diagram name="Página-1" id="dJx56YB7KGcAiy5-ZDgh">
    <mxGraphModel dx="1418" dy="828" grid="1" gridSize="10" guides="1" tooltips="1" connect="1" arrows="1" fold="1" page="1" pageScale="1" pageWidth="827" pageHeight="1169" math="0" shadow="0">
      <root>
        <mxCell id="0" />
        <mxCell id="1" parent="0" />
        <mxCell id="mAbyE8N8R_fkNbjM-QfM-8" value="&lt;blockquote style=&quot;margin: 0 0 0 40px; border: none; padding: 0px;&quot;&gt;Sistema&lt;/blockquote&gt;" style="verticalAlign=top;align=left;spacingTop=8;spacingLeft=2;spacingRight=12;shape=cube;size=10;direction=south;fontStyle=4;html=1;whiteSpace=wrap;" parent="1" vertex="1">
          <mxGeometry x="160" y="110" width="410" height="290" as="geometry" />
        </mxCell>
        <mxCell id="mAbyE8N8R_fkNbjM-QfM-2" value="Paciente" style="shape=umlActor;verticalLabelPosition=bottom;verticalAlign=top;html=1;outlineConnect=0;" parent="1" vertex="1">
          <mxGeometry x="80" y="225" width="30" height="60" as="geometry" />
        </mxCell>
        <mxCell id="mAbyE8N8R_fkNbjM-QfM-3" value="Acceder a &quot;Medicación consumida" style="ellipse;whiteSpace=wrap;html=1;" parent="1" vertex="1">
          <mxGeometry x="180" y="220" width="150" height="55" as="geometry" />
        </mxCell>
        <mxCell id="mAbyE8N8R_fkNbjM-QfM-5" value="Seleccionar medicamento registrado" style="ellipse;whiteSpace=wrap;html=1;" parent="1" vertex="1">
          <mxGeometry x="340" y="300" width="170" height="45" as="geometry" />
        </mxCell>
        <mxCell id="mAbyE8N8R_fkNbjM-QfM-6" value="" style="endArrow=none;html=1;rounded=0;entryX=0;entryY=0.5;entryDx=0;entryDy=0;" parent="1" source="mAbyE8N8R_fkNbjM-QfM-2" target="mAbyE8N8R_fkNbjM-QfM-3" edge="1">
          <mxGeometry width="50" height="50" relative="1" as="geometry">
            <mxPoint x="40" y="400" as="sourcePoint" />
            <mxPoint x="90" y="350" as="targetPoint" />
          </mxGeometry>
        </mxCell>
        <mxCell id="mAbyE8N8R_fkNbjM-QfM-9" value="" style="endArrow=block;dashed=1;endFill=0;endSize=12;html=1;rounded=0;exitX=1;exitY=1;exitDx=0;exitDy=0;entryX=0;entryY=0.5;entryDx=0;entryDy=0;" parent="1" source="mAbyE8N8R_fkNbjM-QfM-3" target="mAbyE8N8R_fkNbjM-QfM-5" edge="1">
          <mxGeometry width="160" relative="1" as="geometry">
            <mxPoint x="80" y="430" as="sourcePoint" />
            <mxPoint x="240" y="430" as="targetPoint" />
          </mxGeometry>
        </mxCell>
        <mxCell id="mAbyE8N8R_fkNbjM-QfM-10" value="Include" style="edgeLabel;html=1;align=center;verticalAlign=middle;resizable=0;points=[];" parent="mAbyE8N8R_fkNbjM-QfM-9" vertex="1" connectable="0">
          <mxGeometry x="0.0798" y="2" relative="1" as="geometry">
            <mxPoint as="offset" />
          </mxGeometry>
        </mxCell>
        <mxCell id="ILcldqNjuaIKTQVxB2YM-1" value="Mostrar consumo de medicación" style="ellipse;whiteSpace=wrap;html=1;" parent="1" vertex="1">
          <mxGeometry x="390" y="170" width="150" height="50" as="geometry" />
        </mxCell>
        <mxCell id="ILcldqNjuaIKTQVxB2YM-2" value="Extend" style="endArrow=open;endFill=1;endSize=12;html=1;rounded=0;exitX=0.5;exitY=1;exitDx=0;exitDy=0;entryX=0.5;entryY=0;entryDx=0;entryDy=0;" parent="1" source="ILcldqNjuaIKTQVxB2YM-1" target="mAbyE8N8R_fkNbjM-QfM-5" edge="1">
          <mxGeometry x="0.0004" width="160" relative="1" as="geometry">
            <mxPoint x="290" y="60" as="sourcePoint" />
            <mxPoint x="300" y="230" as="targetPoint" />
            <Array as="points" />
            <mxPoint as="offset" />
          </mxGeometry>
        </mxCell>
      </root>
    </mxGraphModel>
  </diagram>
</mxfile>
